<?xml version="1.0" encoding="UTF-8"?>
<svg xmlns="http://www.w3.org/2000/svg" width="1400" height="800" viewBox="0 0 1400 800" role="img" aria-label="Building dependable IT operations">
  <defs>
    <linearGradient id="bg" x1="0" y1="0" x2="1" y2="1">
      <stop offset="0%" stop-color="#0b1220"/>
      <stop offset="100%" stop-color="#111827"/>
    </linearGradient>
    <linearGradient id="a" x1="0" y1="0" x2="1" y2="1">
      <stop offset="0%" stop-color="#22d3ee"/>
      <stop offset="100%" stop-color="#3b82f6"/>
    </linearGradient>
  </defs>
  <rect width="1400" height="800" fill="url(#bg)"/>
  <g opacity=".16">
    <circle cx="220" cy="160" r="140" fill="#22d3ee"/>
    <circle cx="1180" cy="640" r="200" fill="#3b82f6"/>
    <circle cx="1040" cy="180" r="120" fill="#22d3ee"/>
  </g>
  <g transform="translate(100,120)">
    <rect x="0" y="0" width="1200" height="560" rx="26" fill="#0f172a" stroke="#1f2937"/>
    <g transform="translate(50,50)">
      <rect x="0" y="0" width="620" height="360" rx="18" fill="url(#a)"/>
      <rect x="660" y="0" width="420" height="60" rx="10" fill="#1f2937"/>
      <rect x="660" y="80" width="380" height="24" rx="8" fill="#1f2937"/>
      <rect x="660" y="120" width="360" height="24" rx="8" fill="#1f2937"/>
      <rect x="660" y="160" width="400" height="24" rx="8" fill="#1f2937"/>
      <rect x="0" y="400" width="1080" height="10" rx="5" fill="#1f2937"/>
      <rect x="0" y="422" width="860" height="10" rx="5" fill="#1f2937"/>
    </g>
  </g>
  <text x="700" y="760" text-anchor="middle" font-family="Inter, system-ui, Segoe UI, Roboto, Helvetica, Arial, sans-serif" font-size="30" fill="#94a3b8">Building dependable IT operations</text>
</svg>
